<?xml version="1.0" encoding="UTF-8" standalone="no"?>
<!-- Created with Inkscape (http://www.inkscape.org/) -->

<svg
   width="128"
   height="64"
   viewBox="0 0 33.866666 16.933333"
   version="1.1"
   id="svg6341"
   inkscape:version="1.2.2 (b0a8486541, 2022-12-01)"
   sodipodi:docname="paddle.svg"
   xmlns:inkscape="http://www.inkscape.org/namespaces/inkscape"
   xmlns:sodipodi="http://sodipodi.sourceforge.net/DTD/sodipodi-0.dtd"
   xmlns="http://www.w3.org/2000/svg"
   xmlns:svg="http://www.w3.org/2000/svg">
  <sodipodi:namedview
     id="namedview6343"
     pagecolor="#505050"
     bordercolor="#eeeeee"
     borderopacity="1"
     inkscape:showpageshadow="0"
     inkscape:pageopacity="0"
     inkscape:pagecheckerboard="0"
     inkscape:deskcolor="#505050"
     inkscape:document-units="px"
     showgrid="true"
     inkscape:zoom="3.8198845"
     inkscape:cx="1.1780461"
     inkscape:cy="-4.5812904"
     inkscape:window-width="2560"
     inkscape:window-height="1370"
     inkscape:window-x="0"
     inkscape:window-y="240"
     inkscape:window-maximized="1"
     inkscape:current-layer="layer1">
    <inkscape:grid
       type="xygrid"
       id="grid6482"
       empspacing="4" />
  </sodipodi:namedview>
  <defs
     id="defs6338">
    <filter
       inkscape:collect="always"
       style="color-interpolation-filters:sRGB"
       id="filter9351"
       x="-0.24300001"
       y="-0.24300001"
       width="1.486"
       height="1.486">
      <feGaussianBlur
         inkscape:collect="always"
         stdDeviation="0.42862498"
         id="feGaussianBlur9353" />
    </filter>
    <filter
       inkscape:collect="always"
       style="color-interpolation-filters:sRGB"
       id="filter15847"
       x="-0.035262856"
       y="-0.16456"
       width="1.0705257"
       height="1.32912">
      <feGaussianBlur
         inkscape:collect="always"
         stdDeviation="0.43539831"
         id="feGaussianBlur15849" />
    </filter>
  </defs>
  <g
     inkscape:label="Layer 1"
     inkscape:groupmode="layer"
     id="layer1">
    <path
       id="path6536"
       style="fill:#000000;stroke-width:2.64583;stroke-linejoin:bevel;paint-order:stroke markers fill"
       d="M 5.2916666 3.7041666 A 4.7624998 4.7624998 0 0 0 0.52916666 8.4666665 A 4.7624998 4.7624998 0 0 0 5.2916666 13.229166 A 4.7624998 4.7624998 0 0 0 6.058028 13.165088 L 30.691666 11.1125 A 2.645833 2.645833 0 0 0 33.337499 8.4666665 A 2.645833 2.645833 0 0 0 30.691666 5.8208332 L 6.0750813 3.7692789 A 4.7624998 4.7624998 0 0 0 5.2916666 3.7041666 z " />
    <path
       id="circle6543"
       style="fill:#de8787;stroke-width:2.64583;stroke-linejoin:bevel;paint-order:stroke markers fill"
       d="M 5.2916666 4.2333332 A 4.2333331 4.2333331 0 0 0 1.0583333 8.4666665 A 4.2333331 4.2333331 0 0 0 5.2916666 12.7 A 4.2333331 4.2333331 0 0 0 5.974829 12.643156 L 30.691666 10.583333 A 2.1166663 2.1166663 0 0 0 32.808333 8.4666665 A 2.1166663 2.1166663 0 0 0 30.691666 6.3499999 L 5.9861978 4.2912109 A 4.2333331 4.2333331 0 0 0 5.2916666 4.2333332 z " />
    <path
       id="circle15477"
       style="mix-blend-mode:normal;fill:#000000;stroke-width:2.64583;stroke-linejoin:bevel;paint-order:stroke markers fill;filter:url(#filter15847);opacity:0.5"
       d="m 5.2916666,5.2482584 a 3.1749997,3.1749997 0 0 0 -3.175,3.1749999 3.1749997,3.1749997 0 0 0 3.175,3.1749997 3.1749997,3.1749997 0 0 0 0.5095296,-0.04237 L 30.691666,9.4815916 A 1.058333,1.058333 0 0 0 31.749999,8.4232583 1.058333,1.058333 0 0 0 30.691666,7.364925 L 5.8141153,5.2916666 A 3.1749997,3.1749997 0 0 0 5.2916666,5.2482584 Z" />
    <path
       id="circle7809"
       style="fill:#ffffff;stroke-width:2.64583;stroke-linejoin:bevel;paint-order:stroke markers fill"
       d="M 5.2916666 5.2916666 A 3.1749997 3.1749997 0 0 0 2.1166666 8.4666665 A 3.1749997 3.1749997 0 0 0 5.2916666 11.641666 A 3.1749997 3.1749997 0 0 0 5.8011962 11.599292 L 30.691666 9.5249998 A 1.058333 1.058333 0 0 0 31.749999 8.4666665 A 1.058333 1.058333 0 0 0 30.691666 7.4083332 L 5.8141153 5.3350748 A 3.1749997 3.1749997 0 0 0 5.2916666 5.2916666 z " />
    <circle
       style="fill:#000000;stroke:none;stroke-width:0.264583;stroke-linecap:round;stroke-linejoin:bevel;stroke-dasharray:none;stroke-dashoffset:0;stroke-opacity:1;paint-order:stroke markers fill;filter:url(#filter9351);opacity:0.5"
       id="path9349"
       cx="5.2916665"
       cy="8.4666662"
       r="2.1166666" />
    <circle
       style="fill:#ffffff;stroke:none;stroke-width:0.264583;stroke-linecap:round;stroke-linejoin:bevel;stroke-dasharray:none;stroke-dashoffset:0;stroke-opacity:1;paint-order:stroke markers fill"
       id="path9355"
       cx="5.2916665"
       cy="8.4666662"
       r="2.1166666" />
  </g>
</svg>
